<mxfile host="app.diagrams.net" modified="2023-08-23T16:27:42.106Z" agent="Mozilla/5.0 (Windows NT 10.0; Win64; x64) AppleWebKit/537.36 (KHTML, like Gecko) Chrome/116.0.0.0 Safari/537.36" etag="WFTmNtmkQS7tYk4BSzvw" version="21.6.9" type="device">
  <diagram name="Page-1" id="XQMiOfn3S3XH_hqR7fFh">
    <mxGraphModel dx="3850" dy="1649" grid="1" gridSize="10" guides="1" tooltips="1" connect="1" arrows="1" fold="1" page="1" pageScale="1" pageWidth="850" pageHeight="1100" math="0" shadow="0">
      <root>
        <mxCell id="0" />
        <mxCell id="1" parent="0" />
        <mxCell id="6itgvNwJxiwhbzk2W-8b-4" style="edgeStyle=none;curved=1;rounded=0;orthogonalLoop=1;jettySize=auto;html=1;fontSize=24;endArrow=none;endFill=0;strokeWidth=3;" parent="1" source="6itgvNwJxiwhbzk2W-8b-10" target="RNBYTY85siqWDJKNxXiN-1" edge="1">
          <mxGeometry relative="1" as="geometry">
            <mxPoint x="381" y="1008.6751134644478" as="sourcePoint" />
            <mxPoint x="540" y="1188.9600213219614" as="targetPoint" />
            <Array as="points" />
          </mxGeometry>
        </mxCell>
        <mxCell id="6itgvNwJxiwhbzk2W-8b-7" style="edgeStyle=orthogonalEdgeStyle;rounded=0;orthogonalLoop=1;jettySize=auto;html=1;fontSize=24;startSize=8;endSize=8;endArrow=none;endFill=0;strokeWidth=3;" parent="1" source="6itgvNwJxiwhbzk2W-8b-19" target="6itgvNwJxiwhbzk2W-8b-18" edge="1">
          <mxGeometry relative="1" as="geometry">
            <mxPoint x="864" y="1105.5056657223797" as="sourcePoint" />
            <mxPoint x="1148.9999999999995" y="1038.4943342776203" as="targetPoint" />
          </mxGeometry>
        </mxCell>
        <mxCell id="6itgvNwJxiwhbzk2W-8b-10" value="Ingress" style="outlineConnect=0;dashed=0;verticalLabelPosition=bottom;verticalAlign=top;align=center;html=1;shape=mxgraph.aws3.classic_load_balancer;fillColor=#F58534;gradientColor=none;fontSize=24;" parent="1" vertex="1">
          <mxGeometry x="201" y="973.75" width="69" height="72" as="geometry" />
        </mxCell>
        <mxCell id="6itgvNwJxiwhbzk2W-8b-11" style="edgeStyle=none;curved=1;rounded=0;orthogonalLoop=1;jettySize=auto;html=1;exitX=1;exitY=0.5;exitDx=0;exitDy=0;exitPerimeter=0;fontSize=24;startSize=8;endSize=8;endArrow=none;endFill=0;strokeWidth=3;" parent="1" source="6itgvNwJxiwhbzk2W-8b-12" target="6itgvNwJxiwhbzk2W-8b-10" edge="1">
          <mxGeometry relative="1" as="geometry" />
        </mxCell>
        <mxCell id="6itgvNwJxiwhbzk2W-8b-12" value="Internet" style="outlineConnect=0;dashed=0;verticalLabelPosition=bottom;verticalAlign=top;align=center;html=1;shape=mxgraph.aws3.internet_gateway;fillColor=#F58534;gradientColor=none;fontSize=24;" parent="1" vertex="1">
          <mxGeometry x="8" y="973.75" width="69" height="72" as="geometry" />
        </mxCell>
        <mxCell id="6itgvNwJxiwhbzk2W-8b-13" style="edgeStyle=none;curved=1;rounded=0;orthogonalLoop=1;jettySize=auto;html=1;exitX=1;exitY=0.5;exitDx=0;exitDy=0;exitPerimeter=0;fontSize=24;startSize=8;endSize=8;strokeWidth=3;endArrow=none;endFill=0;" parent="1" source="6itgvNwJxiwhbzk2W-8b-14" target="6itgvNwJxiwhbzk2W-8b-12" edge="1">
          <mxGeometry relative="1" as="geometry" />
        </mxCell>
        <mxCell id="6itgvNwJxiwhbzk2W-8b-14" value="User" style="outlineConnect=0;dashed=0;verticalLabelPosition=bottom;verticalAlign=top;align=center;html=1;shape=mxgraph.aws3.workspaces;fillColor=#D16A28;gradientColor=#F58435;gradientDirection=north;fontSize=24;" parent="1" vertex="1">
          <mxGeometry x="-180" y="962.5" width="82.5" height="94.5" as="geometry" />
        </mxCell>
        <mxCell id="6itgvNwJxiwhbzk2W-8b-17" style="edgeStyle=orthogonalEdgeStyle;rounded=0;orthogonalLoop=1;jettySize=auto;html=1;fontSize=12;startSize=8;endSize=8;endArrow=none;endFill=0;strokeWidth=3;" parent="1" source="6itgvNwJxiwhbzk2W-8b-18" target="6itgvNwJxiwhbzk2W-8b-26" edge="1">
          <mxGeometry relative="1" as="geometry" />
        </mxCell>
        <mxCell id="6itgvNwJxiwhbzk2W-8b-32" style="rounded=0;orthogonalLoop=1;jettySize=auto;html=1;endArrow=none;endFill=0;strokeWidth=3;edgeStyle=orthogonalEdgeStyle;" parent="1" source="6itgvNwJxiwhbzk2W-8b-18" target="6itgvNwJxiwhbzk2W-8b-29" edge="1">
          <mxGeometry relative="1" as="geometry">
            <Array as="points">
              <mxPoint x="1610" y="1010" />
              <mxPoint x="1610" y="1430" />
            </Array>
          </mxGeometry>
        </mxCell>
        <mxCell id="Q0O1jdkAVz9TU8Qr-83v-6" style="rounded=0;orthogonalLoop=1;jettySize=auto;html=1;strokeWidth=3;endArrow=none;endFill=0;" edge="1" parent="1" source="6itgvNwJxiwhbzk2W-8b-18" target="Q0O1jdkAVz9TU8Qr-83v-4">
          <mxGeometry relative="1" as="geometry" />
        </mxCell>
        <mxCell id="6itgvNwJxiwhbzk2W-8b-18" value="SOAP - Gateway" style="outlineConnect=0;dashed=0;verticalLabelPosition=bottom;verticalAlign=top;align=center;html=1;shape=mxgraph.aws3.api_gateway;fillColor=#D9A741;gradientColor=none;fontSize=24;" parent="1" vertex="1">
          <mxGeometry x="1290" y="964" width="76.5" height="93" as="geometry" />
        </mxCell>
        <mxCell id="6itgvNwJxiwhbzk2W-8b-19" value="REST PROXY - .NET" style="outlineConnect=0;dashed=0;verticalLabelPosition=bottom;verticalAlign=top;align=center;html=1;shape=mxgraph.aws3.instances;fillColor=#F58534;gradientColor=none;fontSize=24;" parent="1" vertex="1">
          <mxGeometry x="970" y="680" width="60" height="63" as="geometry" />
        </mxCell>
        <mxCell id="6itgvNwJxiwhbzk2W-8b-21" style="edgeStyle=orthogonalEdgeStyle;rounded=0;orthogonalLoop=1;jettySize=auto;html=1;fontSize=24;startSize=8;endSize=8;endArrow=none;endFill=0;strokeWidth=3;" parent="1" source="6itgvNwJxiwhbzk2W-8b-23" target="6itgvNwJxiwhbzk2W-8b-18" edge="1">
          <mxGeometry relative="1" as="geometry">
            <Array as="points">
              <mxPoint x="1610" y="588" />
              <mxPoint x="1610" y="1011" />
            </Array>
          </mxGeometry>
        </mxCell>
        <mxCell id="6itgvNwJxiwhbzk2W-8b-22" style="edgeStyle=none;curved=1;rounded=0;orthogonalLoop=1;jettySize=auto;html=1;fontSize=24;startSize=8;endSize=8;strokeWidth=3;endArrow=none;endFill=0;" parent="1" source="6itgvNwJxiwhbzk2W-8b-23" target="6itgvNwJxiwhbzk2W-8b-24" edge="1">
          <mxGeometry relative="1" as="geometry">
            <mxPoint x="2107.9412339154414" y="504.23529052734375" as="targetPoint" />
          </mxGeometry>
        </mxCell>
        <mxCell id="6itgvNwJxiwhbzk2W-8b-23" value="Authentication" style="outlineConnect=0;dashed=0;verticalLabelPosition=bottom;verticalAlign=top;align=center;html=1;shape=mxgraph.aws3.instances;fillColor=#F58534;gradientColor=none;fontSize=24;" parent="1" vertex="1">
          <mxGeometry x="2049" y="556" width="60" height="63" as="geometry" />
        </mxCell>
        <mxCell id="6itgvNwJxiwhbzk2W-8b-24" value="" style="html=1;verticalLabelPosition=bottom;align=center;labelBackgroundColor=#ffffff;verticalAlign=top;strokeWidth=2;strokeColor=#0080F0;shadow=0;dashed=0;shape=mxgraph.ios7.icons.data;fontSize=24;" parent="1" vertex="1">
          <mxGeometry x="2053.25" y="390" width="51.5" height="70" as="geometry" />
        </mxCell>
        <mxCell id="6itgvNwJxiwhbzk2W-8b-25" style="edgeStyle=orthogonalEdgeStyle;rounded=0;orthogonalLoop=1;jettySize=auto;html=1;exitX=0.5;exitY=0;exitDx=0;exitDy=0;exitPerimeter=0;fontSize=12;startSize=8;endSize=8;strokeWidth=3;endArrow=none;endFill=0;" parent="1" source="6itgvNwJxiwhbzk2W-8b-26" target="6itgvNwJxiwhbzk2W-8b-31" edge="1">
          <mxGeometry relative="1" as="geometry">
            <mxPoint x="2079.3304999999996" y="852.21" as="targetPoint" />
          </mxGeometry>
        </mxCell>
        <mxCell id="6itgvNwJxiwhbzk2W-8b-26" value="Filesystem" style="outlineConnect=0;dashed=0;verticalLabelPosition=bottom;verticalAlign=top;align=center;html=1;shape=mxgraph.aws3.instances;fillColor=#F58534;gradientColor=none;fontSize=24;" parent="1" vertex="1">
          <mxGeometry x="2045.75" y="978.25" width="60" height="63" as="geometry" />
        </mxCell>
        <mxCell id="6itgvNwJxiwhbzk2W-8b-28" style="edgeStyle=orthogonalEdgeStyle;rounded=0;orthogonalLoop=1;jettySize=auto;html=1;exitX=0.5;exitY=0;exitDx=0;exitDy=0;exitPerimeter=0;entryX=0.487;entryY=1.003;entryDx=0;entryDy=0;entryPerimeter=0;fontSize=12;startSize=8;endSize=8;strokeWidth=3;endArrow=none;endFill=0;" parent="1" source="6itgvNwJxiwhbzk2W-8b-29" target="6itgvNwJxiwhbzk2W-8b-30" edge="1">
          <mxGeometry relative="1" as="geometry" />
        </mxCell>
        <mxCell id="6itgvNwJxiwhbzk2W-8b-29" value="Metadata" style="outlineConnect=0;dashed=0;verticalLabelPosition=bottom;verticalAlign=top;align=center;html=1;shape=mxgraph.aws3.instances;fillColor=#F58534;gradientColor=none;fontSize=24;" parent="1" vertex="1">
          <mxGeometry x="2049" y="1400" width="60" height="63" as="geometry" />
        </mxCell>
        <mxCell id="6itgvNwJxiwhbzk2W-8b-30" value="" style="html=1;verticalLabelPosition=bottom;align=center;labelBackgroundColor=#ffffff;verticalAlign=top;strokeWidth=2;strokeColor=#0080F0;shadow=0;dashed=0;shape=mxgraph.ios7.icons.data;fontSize=24;" parent="1" vertex="1">
          <mxGeometry x="2053.25" y="1240" width="51.5" height="70" as="geometry" />
        </mxCell>
        <mxCell id="6itgvNwJxiwhbzk2W-8b-31" value="" style="outlineConnect=0;dashed=0;verticalLabelPosition=bottom;verticalAlign=top;align=center;html=1;shape=mxgraph.aws3.volume;fillColor=#E05243;gradientColor=none;" parent="1" vertex="1">
          <mxGeometry x="2050" y="790" width="52.5" height="75" as="geometry" />
        </mxCell>
        <mxCell id="Q0O1jdkAVz9TU8Qr-83v-2" style="rounded=0;orthogonalLoop=1;jettySize=auto;html=1;endArrow=none;endFill=0;strokeWidth=3;" edge="1" parent="1" source="RNBYTY85siqWDJKNxXiN-1" target="Q0O1jdkAVz9TU8Qr-83v-1">
          <mxGeometry relative="1" as="geometry" />
        </mxCell>
        <mxCell id="RNBYTY85siqWDJKNxXiN-1" value="Web app" style="outlineConnect=0;dashed=0;verticalLabelPosition=bottom;verticalAlign=top;align=center;html=1;shape=mxgraph.aws3.instances;fillColor=#F58534;gradientColor=none;fontSize=24;" parent="1" vertex="1">
          <mxGeometry x="425" y="979" width="60" height="63" as="geometry" />
        </mxCell>
        <mxCell id="Q0O1jdkAVz9TU8Qr-83v-3" style="edgeStyle=orthogonalEdgeStyle;rounded=0;orthogonalLoop=1;jettySize=auto;html=1;endArrow=none;endFill=0;strokeWidth=3;" edge="1" parent="1" source="Q0O1jdkAVz9TU8Qr-83v-1" target="6itgvNwJxiwhbzk2W-8b-19">
          <mxGeometry relative="1" as="geometry">
            <Array as="points">
              <mxPoint x="705" y="712" />
            </Array>
          </mxGeometry>
        </mxCell>
        <mxCell id="Q0O1jdkAVz9TU8Qr-83v-5" style="rounded=0;orthogonalLoop=1;jettySize=auto;html=1;strokeWidth=3;endArrow=none;endFill=0;" edge="1" parent="1" source="Q0O1jdkAVz9TU8Qr-83v-1" target="Q0O1jdkAVz9TU8Qr-83v-4">
          <mxGeometry relative="1" as="geometry" />
        </mxCell>
        <mxCell id="Q0O1jdkAVz9TU8Qr-83v-1" value="REST PROXY - LB" style="outlineConnect=0;dashed=0;verticalLabelPosition=bottom;verticalAlign=top;align=center;html=1;shape=mxgraph.aws3.classic_load_balancer;fillColor=#F58534;gradientColor=none;fontSize=24;" vertex="1" parent="1">
          <mxGeometry x="670" y="974.5" width="69" height="72" as="geometry" />
        </mxCell>
        <mxCell id="Q0O1jdkAVz9TU8Qr-83v-4" value="REST PROXY - Python" style="outlineConnect=0;dashed=0;verticalLabelPosition=bottom;verticalAlign=top;align=center;html=1;shape=mxgraph.aws3.instances;fillColor=#F58534;gradientColor=none;fontSize=24;" vertex="1" parent="1">
          <mxGeometry x="970" y="979" width="60" height="63" as="geometry" />
        </mxCell>
      </root>
    </mxGraphModel>
  </diagram>
</mxfile>
